<svg width="64" height="64" viewBox="0 0 64 64" fill="none" xmlns="http://www.w3.org/2000/svg">
<g clip-path="url(#clip0_14_46)">
<path d="M0 32C0 40.4869 3.37142 48.6263 9.37258 54.6274C15.3737 60.6286 23.5131 64 32 64C40.4869 64 48.6263 60.6286 54.6274 54.6274C60.6286 48.6263 64 40.4869 64 32C64 23.5131 60.6286 15.3737 54.6274 9.37258C48.6263 3.37142 40.4869 0 32 0C23.5131 0 15.3737 3.37142 9.37258 9.37258C3.37142 15.3737 0 23.5131 0 32ZM35.125 48.125C33.95 49.3 32.05 49.3 30.8875 48.125C29.725 46.95 29.7125 45.05 30.8875 43.8875L39.7625 35.0125L17 35C15.3375 35 14 33.6625 14 32C14 30.3375 15.3375 29 17 29H39.7625L30.8875 20.125C29.7125 18.95 29.7125 17.05 30.8875 15.8875C32.0625 14.725 33.9625 14.7125 35.125 15.8875L49.125 29.875C50.3 31.05 50.3 32.95 49.125 34.1125L35.125 48.125Z" fill="black"/>
</g>
<defs>
<clipPath id="clip0_14_46">
<rect width="64" height="64" fill="white"/>
</clipPath>
</defs>
</svg>
